<?xml version="1.0" encoding="UTF-8"?> <svg xmlns="http://www.w3.org/2000/svg" width="45" height="45" viewBox="0 0 45 45" fill="none"> <path d="M18.8086 9.10506C15.5127 9.52694 12.709 11.232 10.9248 13.9127C7.98049 18.3248 8.66603 24.2398 12.5332 27.8521C14.5723 29.7594 17.1299 30.7613 19.9424 30.7613C22.3858 30.7613 24.5303 30.0582 26.4287 28.6432L27.1143 28.1246L28.0371 29.0299C28.5469 29.5221 30.3047 31.2623 31.9483 32.8971C35.1914 36.1051 35.1826 36.1051 35.6397 35.6392C35.7891 35.4986 35.8594 35.3316 35.8594 35.1383C35.8594 34.8746 35.5078 34.5055 31.9922 30.981L28.1338 27.1139L28.3096 26.8941C29.4961 25.4176 30.3662 23.5103 30.6826 21.7086C30.8408 20.7945 30.8233 18.7642 30.6299 17.8853C29.707 13.4996 26.5781 10.3004 22.2363 9.30721C21.5069 9.14022 19.4854 9.01717 18.8086 9.10506ZM22.2803 10.8453C23.2471 11.0914 24.4776 11.6539 25.3301 12.2252C26.0772 12.7262 27.2901 13.9654 27.8086 14.7564C28.8106 16.2945 29.2676 17.7359 29.3291 19.6432C29.4258 22.3678 28.582 24.5738 26.6924 26.5162C24.8731 28.3883 22.5967 29.3551 19.9951 29.3551C16.2949 29.3551 13.1221 27.3687 11.4961 24.0377C8.76271 18.4039 12.1992 11.7945 18.457 10.6695C19.4766 10.4849 21.1992 10.564 22.2803 10.8453Z" fill="#1C1C1C"></path> </svg> 