<?xml version="1.0" encoding="UTF-8"?> <svg xmlns="http://www.w3.org/2000/svg" width="45" height="45" viewBox="0 0 45 45" fill="none"> <path d="M21.1379 5.41406C20.8039 5.48438 20.2062 5.7041 19.8195 5.87988C18.1144 6.68848 16.9982 7.93652 16.383 9.71191C16.1545 10.3623 16.1369 10.5469 16.0842 12.1729L16.0402 13.9307L14.634 13.9834C13.008 14.0361 12.5685 14.1592 11.716 14.8096C10.8371 15.4775 10.2746 16.3828 10.1076 17.3936C10.0637 17.7188 9.53632 21.9463 8.94745 26.8066C7.98944 34.7783 7.89276 35.6924 7.98065 36.1934C8.25311 37.8105 9.50995 39.1729 11.1183 39.5947C11.5754 39.709 13.0344 39.7266 22.5002 39.7266C31.966 39.7266 33.425 39.709 33.882 39.5947C35.4904 39.1729 36.7473 37.8105 37.0197 36.1934C37.1076 35.6924 37.0109 34.7695 36.0441 26.8066C35.4641 21.9463 34.9367 17.7188 34.8928 17.4111C34.717 16.3828 34.1545 15.4688 33.2844 14.8096C32.4318 14.1592 31.9924 14.0361 30.3664 13.9834L28.9601 13.9307L28.9162 12.1729C28.8635 10.5469 28.8459 10.3623 28.6174 9.71191C27.9055 7.64648 26.4025 6.19629 24.3019 5.53711C23.4846 5.28223 21.9992 5.2207 21.1379 5.41406ZM23.5637 6.80273C25.3654 7.18945 26.9123 8.68359 27.3781 10.5029C27.466 10.8633 27.51 11.4697 27.51 12.498V13.9746H22.5002H17.4904V12.498C17.4904 10.2393 17.798 9.34277 18.9758 8.17383C20.2414 6.91699 21.8498 6.44238 23.5637 6.80273ZM16.0842 16.6904V18.0088L16.3127 18.1846C16.6555 18.457 16.9894 18.4219 17.2619 18.0967C17.4816 17.833 17.4904 17.7891 17.4904 16.6025V15.3809H22.5002H27.51V16.5762C27.51 17.7715 27.5627 18.0352 27.8527 18.2549C28.0637 18.4219 28.424 18.3867 28.6877 18.1846L28.9162 18.0088V16.6816V15.3633L30.2609 15.3984C31.7463 15.4336 32.0012 15.5039 32.6955 16.1367C33.258 16.6465 33.4689 17.2002 33.6183 18.5098C33.6887 19.1338 34.1808 23.2207 34.717 27.5977C35.3674 32.8799 35.675 35.6836 35.6398 35.9561C35.5607 36.5449 35.0861 37.3359 34.5851 37.7139C33.7414 38.3555 34.5148 38.3203 22.4914 38.3203C12.7619 38.3203 11.6545 38.3027 11.2766 38.1797C10.3713 37.8721 9.74725 37.2305 9.43964 36.2988L9.28143 35.8242L10.2834 27.6416C10.8283 23.1504 11.3293 19.002 11.3908 18.4395C11.5139 17.3145 11.6808 16.8223 12.1203 16.3213C12.7795 15.583 13.3332 15.3896 14.8801 15.3809H16.0842V16.6904Z" fill="#1C1C1C"></path> </svg> 