<?xml version="1.0" encoding="UTF-8"?> <svg xmlns="http://www.w3.org/2000/svg" width="45" height="45" viewBox="0 0 45 45" fill="none"> <path d="M13.5941 7.92877C11.0788 8.30213 8.91231 9.50903 7.43433 11.3584C6.07569 13.0689 5.54325 14.7621 5.63505 17.0717C5.71767 19.0687 6.18585 20.675 7.35171 22.9325C9.83032 27.7341 14.4387 32.2577 19.3959 34.741C20.6995 35.3922 22.1958 36 22.4987 36C22.8017 36 24.298 35.3922 25.62 34.7323C32.0184 31.5371 37.71 24.9469 39.1238 19.0947C39.2431 18.6085 39.3257 17.8618 39.3533 17.0283C39.3992 15.9169 39.3808 15.5956 39.2156 14.8576C39.1146 14.38 38.9218 13.7462 38.8025 13.4423C36.994 9.09226 31.7981 6.8087 27.2448 8.36291C25.8311 8.84046 24.5367 9.60454 23.2423 10.7159L22.4987 11.3498L21.7552 10.7159C19.5152 8.78836 17.156 7.84195 14.659 7.87668C14.2 7.88536 13.7226 7.90273 13.5941 7.92877ZM16.6694 9.4743C17.4956 9.68268 18.992 10.4033 19.7998 10.9851C20.2037 11.2629 20.9106 11.8707 21.3696 12.3309C22.4987 13.4423 22.4987 13.4423 23.6279 12.3309C24.6928 11.2803 25.6842 10.577 26.8593 10.0387C28.172 9.43088 28.732 9.30933 30.21 9.30933C31.229 9.30064 31.5778 9.33537 32.1653 9.50035C34.4328 10.1168 36.2871 11.5929 37.2327 13.5378C37.7743 14.6405 37.8661 15.1267 37.8753 16.7244C37.8753 18.0181 37.8477 18.2438 37.6091 19.1034C36.9297 21.5867 35.5527 24.0786 33.4046 26.7008C32.5142 27.7775 30.0447 30.1565 28.9248 30.9988C27.5937 32.0059 25.7301 33.126 24.1971 33.838C23.3892 34.2114 22.6273 34.5239 22.4987 34.5239C22.1407 34.5239 19.451 33.2302 18.23 32.4661C12.9515 29.1754 8.65527 23.8702 7.37007 19.0687C7.15893 18.2699 7.13139 17.9834 7.12221 16.7244C7.12221 15.4914 7.14975 15.1962 7.33335 14.6145C8.16873 11.862 10.5372 9.89107 13.6859 9.30933C14.1357 9.23118 16.1278 9.33537 16.6694 9.4743Z" fill="#1C1C1C"></path> </svg> 